<?xml version="1.0" encoding="utf-8"?>
<!-- Generator: Adobe Illustrator 18.1.1, SVG Export Plug-In . SVG Version: 6.00 Build 0)  -->
<svg version="1.1" id="Layer_1" xmlns="http://www.w3.org/2000/svg" xmlns:xlink="http://www.w3.org/1999/xlink" x="0px" y="0px"
	 viewBox="0 0 1144 243.2" enable-background="new 0 0 1144 243.2" xml:space="preserve">
<g>
	<path d="M336.3,157.3c-0.4-1.9-0.7-3.6-0.9-5.1c-0.2-1.5-0.3-3-0.4-4.5c-2.2,3.1-5,5.7-8.5,7.7c-3.5,2.1-7.3,3.1-11.3,3.1
		c-6.7,0-11.8-1.7-15.3-5.1c-3.5-3.4-5.3-8.1-5.3-14.2c0-6.1,2.5-10.9,7.4-14.4c5-3.5,11.7-5.2,20.2-5.2h12.7v-6.4
		c0-3.8-1.1-6.7-3.4-8.9c-2.3-2.2-5.5-3.3-9.7-3.3c-3.8,0-6.8,1-9.2,2.9c-2.4,1.9-3.5,4.2-3.5,6.9h-11.2l-0.1-0.4
		c-0.2-4.7,2-8.9,6.6-12.8c4.6-3.9,10.7-5.8,18-5.8c7.3,0,13.1,1.9,17.6,5.5c4.4,3.7,6.6,9,6.6,16v30.9c0,2.3,0.1,4.5,0.4,6.6
		s0.7,4.2,1.3,6.3H336.3z M316.8,148.7c4.2,0,8.1-1.1,11.5-3.3c3.4-2.2,5.6-4.7,6.6-7.5v-10.4h-13.1c-4.7,0-8.5,1.2-11.3,3.6
		c-2.8,2.4-4.2,5.1-4.2,8.3c0,2.8,0.9,5.1,2.7,6.7S313.4,148.7,316.8,148.7z"/>
	<path d="M400.9,140.2c0-2.6-1-4.7-2.9-6.4c-2-1.7-5.7-3.1-11.1-4.3c-7.8-1.7-13.7-4-17.6-6.9c-3.9-2.9-5.9-6.9-5.9-11.9
		c0-5.2,2.2-9.7,6.6-13.3c4.4-3.7,10.2-5.5,17.3-5.5c7.5,0,13.4,1.9,17.8,5.8c4.4,3.8,6.5,8.5,6.3,14l-0.1,0.4h-11.2
		c0-2.8-1.2-5.3-3.5-7.6c-2.4-2.2-5.5-3.4-9.3-3.4c-4.2,0-7.2,0.9-9.3,2.7c-2,1.8-3,4-3,6.6c0,2.5,0.9,4.5,2.7,6
		c1.8,1.5,5.4,2.8,10.9,3.9c8.1,1.7,14.1,4.1,18.1,7.1c4,3,5.9,7,5.9,12c0,5.7-2.3,10.3-6.9,13.8c-4.6,3.5-10.6,5.3-18.1,5.3
		c-8.2,0-14.6-2.1-19.3-6.2c-4.7-4.2-6.9-9-6.7-14.5l0.1-0.4h11.2c0.2,4.1,1.7,7.2,4.6,9.1c2.9,1.9,6.3,2.9,10.1,2.9
		c4.2,0,7.4-0.8,9.8-2.5C399.8,145.1,400.9,142.9,400.9,140.2z"/>
	<path d="M438.9,101.7c2.2-3.1,4.9-5.5,8.2-7.2c3.2-1.7,6.8-2.6,10.7-2.6c6.8,0,12.2,2.1,16,6.2c3.8,4.1,5.7,10.4,5.7,19v40.2h-11.7
		v-40.4c0-5.3-1.1-9.2-3.4-11.8c-2.3-2.5-5.7-3.8-10.2-3.8c-3.2,0-6.2,0.8-8.8,2.3c-2.6,1.5-4.8,3.6-6.5,6.2v47.4h-11.7V64.7h11.7
		V101.7z"/>
	<path d="M526.6,103.4l-6-0.4c-3.1,0-5.7,0.7-7.8,2.2c-2.1,1.5-3.7,3.5-4.9,6.2v45.9h-11.7V93.1h10.4l1.1,9.4
		c1.8-3.3,4.1-5.9,6.7-7.8c2.7-1.9,5.7-2.8,9.2-2.8c0.9,0,1.7,0.1,2.5,0.2c0.8,0.1,1.4,0.3,2,0.4L526.6,103.4z"/>
	<path d="M534,124.6c0-9.5,2.6-17.3,7.7-23.5c5.1-6.2,12.1-9.2,20.9-9.2c8.9,0,15.9,3.1,21.1,9.2c5.2,6.1,7.7,14,7.7,23.5v1.3
		c0,9.6-2.6,17.4-7.7,23.5c-5.1,6.1-12.1,9.1-21,9.1c-8.9,0-15.9-3.1-21-9.2c-5.2-6.1-7.7-13.9-7.7-23.5V124.6z M545.7,125.9
		c0,6.8,1.4,12.4,4.3,16.8c2.9,4.4,7.1,6.6,12.8,6.6c5.6,0,9.8-2.2,12.7-6.6c2.9-4.4,4.3-10,4.3-16.8v-1.3c0-6.7-1.5-12.3-4.4-16.8
		c-2.9-4.5-7.2-6.7-12.8-6.7c-5.6,0-9.8,2.2-12.7,6.7c-2.9,4.5-4.3,10.1-4.3,16.8V125.9z"/>
	<path d="M631.9,149.4c3.9,0,7.3-1.2,10.2-3.6c2.9-2.4,4.4-5.3,4.4-8.8h10.5l0.1,0.4c0.2,5.5-2.3,10.5-7.4,14.8
		c-5.1,4.3-11.1,6.5-17.9,6.5c-9.3,0-16.5-3-21.4-9.1c-4.9-6.1-7.4-13.7-7.4-23V124c0-9.1,2.5-16.8,7.4-22.9
		c5-6.1,12.1-9.2,21.4-9.2c7.5,0,13.7,2.2,18.4,6.6c4.8,4.4,7.1,9.9,6.9,16.3l-0.1,0.4h-10.6c0-3.9-1.4-7.2-4.2-10
		c-2.8-2.7-6.3-4.1-10.5-4.1c-6.1,0-10.5,2.2-13.1,6.6c-2.6,4.4-3.9,9.8-3.9,16.2v2.5c0,6.6,1.3,12,3.9,16.4
		S625.8,149.4,631.9,149.4z"/>
	<path d="M689.7,127.6h-7.6v29.7h-11.7V64.7h11.7v53.7h7.5l17.6-25.3h14l-22,29.1l25.1,35.1h-13.8L689.7,127.6z"/>
	<path d="M774.1,173.3h-9.4V70.9h9.4V173.3z"/>
	<path d="M820.5,126.4c0-10.3,2.2-18.7,6.6-25c4.4-6.3,10.6-9.5,18.5-9.5c3.8,0,7.1,0.7,10,2.1c2.9,1.4,5.4,3.4,7.4,6.1V64.7h11.7
		v92.6h-9.6l-1.4-7.9c-2.1,3-4.7,5.3-7.7,6.8s-6.6,2.3-10.6,2.3c-7.8,0-14-2.8-18.4-8.5c-4.4-5.7-6.6-13.1-6.6-22.4V126.4z
		 M832.2,127.6c0,6.5,1.3,11.7,4,15.6c2.7,3.9,6.8,5.8,12.3,5.8c3.5,0,6.4-0.8,8.8-2.4c2.4-1.6,4.3-3.8,5.8-6.6v-30
		c-1.5-2.7-3.5-4.8-5.8-6.3c-2.4-1.6-5.3-2.3-8.6-2.3c-5.6,0-9.8,2.3-12.4,6.9c-2.7,4.6-4,10.6-4,18V127.6z"/>
	<path d="M904.9,76.6h-11.7V64.7h11.7V76.6z M904.9,157.3h-11.7V93.1h11.7V157.3z"/>
	<path d="M920.3,126.4c0-10.3,2.3-18.7,6.8-25c4.5-6.3,10.7-9.5,18.7-9.5c4.1,0,7.7,0.8,10.7,2.5c3.1,1.6,5.7,4,7.7,7.1l1.4-8.4h9.3
		v64.6c0,8.2-2.4,14.5-7.2,19c-4.8,4.4-11.7,6.6-20.7,6.6c-3.1,0-6.4-0.4-10-1.3c-3.6-0.9-6.7-2-9.5-3.5l3-9.1
		c2.1,1.2,4.6,2.1,7.6,2.9c3,0.7,5.9,1.1,8.8,1.1c5.7,0,9.8-1.3,12.4-3.9c2.6-2.6,3.9-6.5,3.9-11.8v-7.2c-2.1,2.7-4.6,4.7-7.5,6.1
		c-2.9,1.4-6.3,2-10.1,2c-7.9,0-14.1-2.8-18.6-8.5c-4.5-5.7-6.8-13.2-6.8-22.4V126.4z M932,127.6c0,6.4,1.4,11.6,4.1,15.5
		s6.9,5.9,12.5,5.9c3.5,0,6.5-0.8,8.8-2.4c2.4-1.6,4.3-3.9,5.9-6.8v-29.6c-1.5-2.7-3.5-4.9-5.9-6.5c-2.4-1.6-5.3-2.4-8.7-2.4
		c-5.6,0-9.8,2.3-12.5,7c-2.8,4.7-4.2,10.7-4.2,18V127.6z"/>
	<path d="M1004.6,76.6h-11.7V64.7h11.7V76.6z M1004.6,157.3h-11.7V93.1h11.7V157.3z"/>
	<path d="M1038,77.6v15.5h12.2v8.7H1038v39c0,3,0.6,5.1,1.9,6.4c1.2,1.2,2.9,1.8,5,1.8c0.7,0,1.4-0.1,2.2-0.2
		c0.8-0.2,1.5-0.4,2.2-0.6l1.5,8c-0.9,0.7-2.1,1.3-3.8,1.8c-1.7,0.5-3.4,0.7-5.1,0.7c-4.7,0-8.5-1.4-11.3-4.3
		c-2.8-2.9-4.2-7.4-4.2-13.5v-39h-10.2v-8.7h10.2V77.6H1038z"/>
	<path d="M1104,157.3c-0.4-1.9-0.7-3.6-0.9-5.1c-0.2-1.5-0.3-3-0.4-4.5c-2.2,3.1-5,5.7-8.5,7.7c-3.5,2.1-7.3,3.1-11.3,3.1
		c-6.7,0-11.8-1.7-15.3-5.1c-3.5-3.4-5.3-8.1-5.3-14.2c0-6.1,2.5-10.9,7.4-14.4c5-3.5,11.7-5.2,20.2-5.2h12.7v-6.4
		c0-3.8-1.1-6.7-3.4-8.9c-2.3-2.2-5.5-3.3-9.7-3.3c-3.8,0-6.8,1-9.2,2.9c-2.4,1.9-3.5,4.2-3.5,6.9h-11.2l-0.1-0.4
		c-0.2-4.7,2-8.9,6.6-12.8c4.6-3.9,10.7-5.8,18-5.8c7.3,0,13.1,1.9,17.6,5.5c4.4,3.7,6.6,9,6.6,16v30.9c0,2.3,0.1,4.5,0.4,6.6
		s0.7,4.2,1.3,6.3H1104z M1084.6,148.7c4.2,0,8.1-1.1,11.5-3.3c3.4-2.2,5.6-4.7,6.6-7.5v-10.4h-13.1c-4.7,0-8.5,1.2-11.3,3.6
		c-2.8,2.4-4.2,5.1-4.2,8.3c0,2.8,0.9,5.1,2.7,6.7S1081.2,148.7,1084.6,148.7z"/>
	<path d="M1144,157.3h-11.7V64.7h11.7V157.3z"/>
</g>
<circle cx="121.6" cy="121.6" r="121.6"/>
<g>
	<path fill="#FFFFFF" d="M206.7,175.4c-3.5,6.3-8.7,11.4-15.6,15.4s-15.3,5.9-25.2,5.9c-9.4,0-16.8-2.7-22.2-8
		c-5.4-5.3-8.1-12.5-8.1-21.5c0-8.8,4-16.1,12-22c8-5.9,18.1-8.9,30.1-8.9h28.9v-15.3c0-8.7-2.7-15.5-8.1-20.3
		c-5.4-4.9-13-7.3-22.8-7.3c-9.2,0-16.6,2.3-22.2,6.9c-5.6,4.6-8.4,10.5-8.4,17.7l-4.2-0.2l-0.2-0.5c-0.4-8.1,2.7-15,9.2-20.6
		c6.5-5.6,15.1-8.5,25.8-8.5c10.9,0,19.6,2.8,26.1,8.5c6.6,5.7,9.8,13.8,9.8,24.5v52.4c0,3.7,0.2,7.2,0.6,10.7
		c0.4,3.5,1.1,6.9,2,10.3h-5.6c-0.8-4.6-1.4-8-1.6-10.3c-0.3-2.3-0.4-4.7-0.4-7.4V175.4z M165.8,191.6c10.1,0,18.6-2.3,25.5-6.9
		c7-4.6,12.1-11.1,15.3-19.6v-23.5H178c-10.5,0-19.3,2.5-26.6,7.5c-7.2,5-10.8,11.2-10.8,18.5c0,7,2.3,12.8,6.9,17.2
		C152.1,189.4,158.2,191.6,165.8,191.6z"/>
</g>
</svg>
